HIERARCHY
ROOT Hips
{
  OFFSET 0.000000 95.000000 0.000000
  CHANNELS 6 Xposition Yposition Zposition Zrotation Xrotation Yrotation
  JOINT Spine
  {
    OFFSET 0.000000 10.000000 0.000000
    CHANNELS 3 Zrotation Xrotation Yrotation
    JOINT Spine1
    {
      OFFSET 0.000000 12.000000 0.000000
      CHANNELS 3 Zrotation Xrotation Yrotation
      JOINT Spine2
      {
        OFFSET 0.000000 12.000000 0.000000
        CHANNELS 3 Zrotation Xrotation Yrotation
        JOINT Neck
        {
          OFFSET 0.000000 10.000000 0.000000
          CHANNELS 3 Zrotation Xrotation Yrotation
          JOINT Head
          {
            OFFSET 0.000000 8.000000 0.000000
            CHANNELS 3 Zrotation Xrotation Yrotation
            End Site
            {
              OFFSET 0.000000 10.000000 0.000000
            }
          }
        }
        JOINT LeftShoulder
        {
          OFFSET 6.000000 8.000000 0.000000
          CHANNELS 3 Zrotation Xrotation Yrotation
          JOINT LeftArm
          {
            OFFSET 12.000000 0.000000 0.000000
            CHANNELS 3 Zrotation Xrotation Yrotation
            JOINT LeftForeArm
            {
              OFFSET 24.000000 0.000000 0.000000
              CHANNELS 3 Zrotation Xrotation Yrotation
              JOINT LeftHand
              {
                OFFSET 22.000000 0.000000 0.000000
                CHANNELS 3 Zrotation Xrotation Yrotation
                JOINT LeftHandThumb1
                {
                  OFFSET 1.800000 -1.400000 0.500000
                  CHANNELS 3 Zrotation Xrotation Yrotation
                  JOINT LeftHandThumb2
                  {
                    OFFSET 2.400000 0.000000 0.000000
                    CHANNELS 3 Zrotation Xrotation Yrotation
                    JOINT LeftHandThumb3
                    {
                      OFFSET 1.900000 0.000000 0.000000
                      CHANNELS 3 Zrotation Xrotation Yrotation
                      End Site
                      {
                        OFFSET 1.600000 0.000000 0.000000
                      }
                    }
                  }
                }
                JOINT LeftHandIndex1
                {
                  OFFSET 6.600000 1.200000 0.300000
                  CHANNELS 3 Zrotation Xrotation Yrotation
                  JOINT LeftHandIndex2
                  {
                    OFFSET 2.000000 0.000000 0.000000
                    CHANNELS 3 Zrotation Xrotation Yrotation
                    JOINT LeftHandIndex3
                    {
                      OFFSET 1.200000 0.000000 0.000000
                      CHANNELS 3 Zrotation Xrotation Yrotation
                      End Site
                      {
                        OFFSET 1.000000 0.000000 0.000000
                      }
                    }
                  }
                }
                JOINT LeftHandMiddle1
                {
                  OFFSET 7.200000 0.000000 0.300000
                  CHANNELS 3 Zrotation Xrotation Yrotation
                  JOINT LeftHandMiddle2
                  {
                    OFFSET 3.000000 0.000000 0.000000
                    CHANNELS 3 Zrotation Xrotation Yrotation
                    JOINT LeftHandMiddle3
                    {
                      OFFSET 2.000000 0.000000 0.000000
                      CHANNELS 3 Zrotation Xrotation Yrotation
                      End Site
                      {
                        OFFSET 1.600000 0.000000 0.000000
                      }
                    }
                  }
                }
                JOINT LeftHandRing1
                {
                  OFFSET 7.100000 -1.000000 0.400000
                  CHANNELS 3 Zrotation Xrotation Yrotation
                  JOINT LeftHandRing2
                  {
                    OFFSET 2.600000 0.000000 0.000000
                    CHANNELS 3 Zrotation Xrotation Yrotation
                    JOINT LeftHandRing3
                    {
                      OFFSET 1.600000 0.000000 0.000000
                      CHANNELS 3 Zrotation Xrotation Yrotation
                      End Site
                      {
                        OFFSET 1.300000 0.000000 0.000000
                      }
                    }
                  }
                }
                JOINT LeftHandPinky1
                {
                  OFFSET 6.500000 -2.000000 0.500000
                  CHANNELS 3 Zrotation Xrotation Yrotation
                  JOINT LeftHandPinky2
                  {
                    OFFSET 1.900000 0.000000 0.000000
                    CHANNELS 3 Zrotation Xrotation Yrotation
                    JOINT LeftHandPinky3
                    {
                      OFFSET 1.400000 0.000000 0.000000
                      CHANNELS 3 Zrotation Xrotation Yrotation
                      End Site
                      {
                        OFFSET 1.300000 0.000000 0.000000
                      }
                    }
                  }
                }
              }
            }
          }
        }
        JOINT RightShoulder
        {
          OFFSET -6.000000 8.000000 0.000000
          CHANNELS 3 Zrotation Xrotation Yrotation
          JOINT RightArm
          {
            OFFSET -12.000000 0.000000 0.000000
            CHANNELS 3 Zrotation Xrotation Yrotation
            JOINT RightForeArm
            {
              OFFSET -24.000000 0.000000 0.000000
              CHANNELS 3 Zrotation Xrotation Yrotation
              JOINT RightHand
              {
                OFFSET -22.000000 0.000000 0.000000
                CHANNELS 3 Zrotation Xrotation Yrotation
                JOINT RightHandThumb1
                {
                  OFFSET -1.800000 -1.400000 0.500000
                  CHANNELS 3 Zrotation Xrotation Yrotation
                  JOINT RightHandThumb2
                  {
                    OFFSET -2.400000 0.000000 0.000000
                    CHANNELS 3 Zrotation Xrotation Yrotation
                    JOINT RightHandThumb3
                    {
                      OFFSET -1.900000 0.000000 0.000000
                      CHANNELS 3 Zrotation Xrotation Yrotation
                      End Site
                      {
                        OFFSET -1.600000 0.000000 0.000000
                      }
                    }
                  }
                }
                JOINT RightHandIndex1
                {
                  OFFSET -6.600000 1.200000 0.300000
                  CHANNELS 3 Zrotation Xrotation Yrotation
                  JOINT RightHandIndex2
                  {
                    OFFSET -2.000000 0.000000 0.000000
                    CHANNELS 3 Zrotation Xrotation Yrotation
                    JOINT RightHandIndex3
                    {
                      OFFSET -1.200000 0.000000 0.000000
                      CHANNELS 3 Zrotation Xrotation Yrotation
                      End Site
                      {
                        OFFSET -1.000000 0.000000 0.000000
                      }
                    }
                  }
                }
                JOINT RightHandMiddle1
                {
                  OFFSET -7.200000 0.000000 0.300000
                  CHANNELS 3 Zrotation Xrotation Yrotation
                  JOINT RightHandMiddle2
                  {
                    OFFSET -3.000000 0.000000 0.000000
                    CHANNELS 3 Zrotation Xrotation Yrotation
                    JOINT RightHandMiddle3
                    {
                      OFFSET -2.000000 0.000000 0.000000
                      CHANNELS 3 Zrotation Xrotation Yrotation
                      End Site
                      {
                        OFFSET -1.600000 0.000000 0.000000
                      }
                    }
                  }
                }
                JOINT RightHandRing1
                {
                  OFFSET -7.100000 -1.000000 0.400000
                  CHANNELS 3 Zrotation Xrotation Yrotation
                  JOINT RightHandRing2
                  {
                    OFFSET -2.600000 0.000000 0.000000
                    CHANNELS 3 Zrotation Xrotation Yrotation
                    JOINT RightHandRing3
                    {
                      OFFSET -1.600000 0.000000 0.000000
                      CHANNELS 3 Zrotation Xrotation Yrotation
                      End Site
                      {
                        OFFSET -1.300000 0.000000 0.000000
                      }
                    }
                  }
                }
                JOINT RightHandPinky1
                {
                  OFFSET -6.500000 -2.000000 0.500000
                  CHANNELS 3 Zrotation Xrotation Yrotation
                  JOINT RightHandPinky2
                  {
                    OFFSET -1.900000 0.000000 0.000000
                    CHANNELS 3 Zrotation Xrotation Yrotation
                    JOINT RightHandPinky3
                    {
                      OFFSET -1.400000 0.000000 0.000000
                      CHANNELS 3 Zrotation Xrotation Yrotation
                      End Site
                      {
                        OFFSET -1.300000 0.000000 0.000000
                      }
                    }
                  }
                }
              }
            }
          }
        }
      }
    }
  }
  JOINT LeftUpLeg
  {
    OFFSET 10.000000 -5.000000 0.000000
    CHANNELS 3 Zrotation Xrotation Yrotation
    JOINT LeftLeg
    {
      OFFSET 0.000000 -42.000000 0.000000
      CHANNELS 3 Zrotation Xrotation Yrotation
      JOINT LeftFoot
      {
        OFFSET 0.000000 -42.000000 4.000000
        CHANNELS 3 Zrotation Xrotation Yrotation
        End Site
        {
          OFFSET 0.000000 0.000000 12.000000
        }
      }
    }
  }
  JOINT RightUpLeg
  {
    OFFSET -10.000000 -5.000000 0.000000
    CHANNELS 3 Zrotation Xrotation Yrotation
    JOINT RightLeg
    {
      OFFSET 0.000000 -42.000000 0.000000
      CHANNELS 3 Zrotation Xrotation Yrotation
      JOINT RightFoot
      {
        OFFSET 0.000000 -42.000000 4.000000
        CHANNELS 3 Zrotation Xrotation Yrotation
        End Site
        {
          OFFSET 0.000000 0.000000 12.000000
        }
      }
    }
  }
}
MOTION
Frames: 6
Frame Time: 0.033333
0.0000 95.0000 0.0000 0.0000 0.0000 0.0000 0.0000 0.0000 0.0000 0.0000 0.0000 0.0000 0.0000 0.0000 0.0000 0.0000 0.0000 0.0000 0.0000 0.0000 0.0000 0.0000 0.0000 0.0000 -76.4765 11.9037 15.0732 -7.7593 -2.7674 6.1502 -164.1345 -6.6502 165.6409 51.3838 -9.3098 9.0739 9.5692 0.0000 0.0000 3.6758 0.0000 0.0000 -0.6576 -0.5447 3.2619 18.5491 0.0000 0.0000 2.2180 0.0000 0.0000 10.1771 -0.3931 -0.3600 23.9134 0.0000 0.0000 10.5768 0.0000 0.0000 18.2765 -1.0207 0.2632 29.0733 0.0000 0.0000 10.5306 0.0000 0.0000 25.6074 -1.7529 1.6099 24.7855 0.0000 0.0000 22.0078 0.0000 0.0000 0.0000 0.0000 0.0000 88.1465 -3.2950 3.4033 -3.0362 7.0911 6.7357 167.3599 12.7446 172.8005 -63.4548 -12.4125 -9.4650 11.8476 0.0000 0.0000 1.4192 0.0000 0.0000 4.1946 -0.3518 -3.7481 160.1883 0.0000 0.0000 11.9729 0.0000 0.0000 -10.1193 -0.2310 2.1638 156.7378 0.0000 0.0000 17.1423 0.0000 0.0000 -18.9846 -1.0059 1.8566 152.3083 0.0000 0.0000 18.0501 0.0000 0.0000 -28.7442 -2.2588 3.5738 144.9694 0.0000 0.0000 19.2823 0.0000 0.0000 0.0000 0.0000 0.0000 0.0000 0.0000 0.0000 0.0000 0.0000 0.0000 0.0000 0.0000 0.0000 0.0000 0.0000 0.0000 0.0000 0.0000 0.0000
0.0000 95.0000 0.0000 0.0000 0.0000 0.0000 0.0000 0.0000 0.0000 0.0000 0.0000 0.0000 0.0000 0.0000 0.0000 0.0000 0.0000 0.0000 0.0000 0.0000 0.0000 0.0000 0.0000 0.0000 -77.1359 11.6502 14.5821 -6.9668 -2.7771 5.7490 -164.0307 -6.0613 166.2969 51.3838 -9.3098 9.0739 9.5692 0.0000 0.0000 3.6758 0.0000 0.0000 -0.6576 -0.5447 3.2619 18.5491 0.0000 0.0000 2.2180 0.0000 0.0000 10.1771 -0.3931 -0.3600 23.9134 0.0000 0.0000 10.5768 0.0000 0.0000 18.2765 -1.0207 0.2632 29.0733 0.0000 0.0000 10.5306 0.0000 0.0000 25.6074 -1.7529 1.6099 24.7855 0.0000 0.0000 22.0078 0.0000 0.0000 0.0000 0.0000 0.0000 88.2365 -3.0046 3.0985 -2.8532 7.1733 6.8560 167.6335 12.5659 173.0450 -63.4548 -12.4125 -9.4650 11.8476 0.0000 0.0000 1.4192 0.0000 0.0000 4.1946 -0.3518 -3.7481 160.1883 0.0000 0.0000 11.9729 0.0000 0.0000 -10.1193 -0.2310 2.1638 156.7378 0.0000 0.0000 17.1423 0.0000 0.0000 -18.9846 -1.0059 1.8566 152.3083 0.0000 0.0000 18.0501 0.0000 0.0000 -28.7442 -2.2588 3.5738 144.9694 0.0000 0.0000 19.2823 0.0000 0.0000 0.0000 0.0000 0.0000 0.0000 0.0000 0.0000 0.0000 0.0000 0.0000 0.0000 0.0000 0.0000 0.0000 0.0000 0.0000 0.0000 0.0000 0.0000
0.0000 95.0000 0.0000 0.0000 0.0000 0.0000 0.0000 0.0000 0.0000 0.0000 0.0000 0.0000 0.0000 0.0000 0.0000 0.0000 0.0000 0.0000 0.0000 0.0000 0.0000 0.0000 0.0000 0.0000 -77.9040 11.1977 13.8285 -6.0393 -2.6909 5.1652 -163.9269 -5.1212 167.3501 51.3838 -9.3098 9.0739 9.5692 0.0000 0.0000 3.6758 0.0000 0.0000 -0.6576 -0.5447 3.2619 18.5491 0.0000 0.0000 2.2180 0.0000 0.0000 10.1771 -0.3931 -0.3600 23.9134 0.0000 0.0000 10.5768 0.0000 0.0000 18.2765 -1.0207 0.2632 29.0733 0.0000 0.0000 10.5306 0.0000 0.0000 25.6074 -1.7529 1.6099 24.7855 0.0000 0.0000 22.0078 0.0000 0.0000 0.0000 0.0000 0.0000 88.2881 -3.0001 3.0911 -2.8493 7.1140 6.7932 167.7050 12.5044 173.1249 -63.4548 -12.4125 -9.4650 11.8476 0.0000 0.0000 1.4192 0.0000 0.0000 4.1946 -0.3518 -3.7481 160.1883 0.0000 0.0000 11.9729 0.0000 0.0000 -10.1193 -0.2310 2.1638 156.7378 0.0000 0.0000 17.1423 0.0000 0.0000 -18.9846 -1.0059 1.8566 152.3083 0.0000 0.0000 18.0501 0.0000 0.0000 -28.7442 -2.2588 3.5738 144.9694 0.0000 0.0000 19.2823 0.0000 0.0000 0.0000 0.0000 0.0000 0.0000 0.0000 0.0000 0.0000 0.0000 0.0000 0.0000 0.0000 0.0000 0.0000 0.0000 0.0000 0.0000 0.0000 0.0000
0.0000 95.0000 0.0000 0.0000 0.0000 0.0000 0.0000 0.0000 0.0000 0.0000 0.0000 0.0000 0.0000 0.0000 0.0000 0.0000 0.0000 0.0000 0.0000 0.0000 0.0000 0.0000 0.0000 0.0000 -77.8314 11.2988 13.9707 -6.0396 -2.6525 5.1333 -163.8695 -5.2004 167.2593 51.3838 -9.3098 9.0739 9.5692 0.0000 0.0000 3.6758 0.0000 0.0000 -0.6576 -0.5447 3.2619 18.5491 0.0000 0.0000 2.2180 0.0000 0.0000 10.1771 -0.3931 -0.3600 23.9134 0.0000 0.0000 10.5768 0.0000 0.0000 18.2765 -1.0207 0.2632 29.0733 0.0000 0.0000 10.5306 0.0000 0.0000 25.6074 -1.7529 1.6099 24.7855 0.0000 0.0000 22.0078 0.0000 0.0000 0.0000 0.0000 0.0000 88.2700 -2.8789 2.9672 -2.6501 6.9948 6.7204 167.9207 12.3021 173.3831 -63.4548 -12.4125 -9.4650 11.8476 0.0000 0.0000 1.4192 0.0000 0.0000 4.1946 -0.3518 -3.7481 160.1883 0.0000 0.0000 11.9729 0.0000 0.0000 -10.1193 -0.2310 2.1638 156.7378 0.0000 0.0000 17.1423 0.0000 0.0000 -18.9846 -1.0059 1.8566 152.3083 0.0000 0.0000 18.0501 0.0000 0.0000 -28.7442 -2.2588 3.5738 144.9694 0.0000 0.0000 19.2823 0.0000 0.0000 0.0000 0.0000 0.0000 0.0000 0.0000 0.0000 0.0000 0.0000 0.0000 0.0000 0.0000 0.0000 0.0000 0.0000 0.0000 0.0000 0.0000 0.0000
0.0000 95.0000 0.0000 0.0000 0.0000 0.0000 0.0000 0.0000 0.0000 0.0000 0.0000 0.0000 0.0000 0.0000 0.0000 0.0000 0.0000 0.0000 0.0000 0.0000 0.0000 0.0000 0.0000 0.0000 -78.0292 11.1902 13.7887 -6.1285 -2.4588 4.8752 -164.2065 -4.8665 167.6431 51.3838 -9.3098 9.0739 9.5692 0.0000 0.0000 3.6758 0.0000 0.0000 -0.6576 -0.5447 3.2619 18.5491 0.0000 0.0000 2.2180 0.0000 0.0000 10.1771 -0.3931 -0.3600 23.9134 0.0000 0.0000 10.5768 0.0000 0.0000 18.2765 -1.0207 0.2632 29.0733 0.0000 0.0000 10.5306 0.0000 0.0000 25.6074 -1.7529 1.6099 24.7855 0.0000 0.0000 22.0078 0.0000 0.0000 0.0000 0.0000 0.0000 88.4228 -2.8411 2.9204 -2.6594 6.8891 6.6003 168.0950 12.1588 173.5684 -63.4548 -12.4125 -9.4650 11.8476 0.0000 0.0000 1.4192 0.0000 0.0000 4.1946 -0.3518 -3.7481 160.1883 0.0000 0.0000 11.9729 0.0000 0.0000 -10.1193 -0.2310 2.1638 156.7378 0.0000 0.0000 17.1423 0.0000 0.0000 -18.9846 -1.0059 1.8566 152.3083 0.0000 0.0000 18.0501 0.0000 0.0000 -28.7442 -2.2588 3.5738 144.9694 0.0000 0.0000 19.2823 0.0000 0.0000 0.0000 0.0000 0.0000 0.0000 0.0000 0.0000 0.0000 0.0000 0.0000 0.0000 0.0000 0.0000 0.0000 0.0000 0.0000 0.0000 0.0000 0.0000
0.0000 95.0000 0.0000 0.0000 0.0000 0.0000 0.0000 0.0000 0.0000 0.0000 0.0000 0.0000 0.0000 0.0000 0.0000 0.0000 0.0000 0.0000 0.0000 0.0000 0.0000 0.0000 0.0000 0.0000 -77.6730 11.6289 14.4177 -6.0648 -2.3444 4.7875 -163.8400 -5.2569 167.1948 51.3838 -9.3098 9.0739 9.5692 0.0000 0.0000 3.6758 0.0000 0.0000 -0.6576 -0.5447 3.2619 18.5491 0.0000 0.0000 2.2180 0.0000 0.0000 10.1771 -0.3931 -0.3600 23.9134 0.0000 0.0000 10.5768 0.0000 0.0000 18.2765 -1.0207 0.2632 29.0733 0.0000 0.0000 10.5306 0.0000 0.0000 25.6074 -1.7529 1.6099 24.7855 0.0000 0.0000 22.0078 0.0000 0.0000 0.0000 0.0000 0.0000 88.4697 -2.7729 2.8479 -2.8291 6.6623 6.3508 168.0284 11.8634 173.8819 -63.4548 -12.4125 -9.4650 11.8476 0.0000 0.0000 1.4192 0.0000 0.0000 4.1946 -0.3518 -3.7481 160.1883 0.0000 0.0000 11.9729 0.0000 0.0000 -10.1193 -0.2310 2.1638 156.7378 0.0000 0.0000 17.1423 0.0000 0.0000 -18.9846 -1.0059 1.8566 152.3083 0.0000 0.0000 18.0501 0.0000 0.0000 -28.7442 -2.2588 3.5738 144.9694 0.0000 0.0000 19.2823 0.0000 0.0000 0.0000 0.0000 0.0000 0.0000 0.0000 0.0000 0.0000 0.0000 0.0000 0.0000 0.0000 0.0000 0.0000 0.0000 0.0000 0.0000 0.0000 0.0000
